<?xml version="1.0" encoding="UTF-8"?>
<svg version="1.1" viewBox="0 0 1200 1200" width="1200" height="1200" xmlns="http://www.w3.org/2000/svg">
<path transform="translate(408,82)" d="m0 0h384l13 4 10 6 10 10 6 10 16 47 22 65 30 89 26 77 216 640 8 24 1 6v13l-3 12-7 13-10 10-10 6-9 3-5 1h-390l-13-4-10-6-10-9-105-98-106-99-4-4-4 10-16 47-33 98-13 37-7 10-8 8-10 6-9 3-5 1h-269l-11-3-10-5-10-9-6-8-5-11-2-9v-13l3-12 24-72 14-41 34-101 24-71 29-86 188-557 5-12 7-9 7-7 10-6zm191 423-27 80-19 56-30 89-7 21v2h168l-3-11-22-66-14-41-34-101-10-29z" fill="#0A5BA6"/>
<path transform="translate(427,82)" d="m0 0h365l13 4 10 6 10 10 6 10 16 47 22 65 30 89 26 77 216 640 8 24 1 6v13l-3 12-7 13-10 10-10 6-9 3-5 1h-362v-1l13-4 10-6 7-6 7-11 4-9 1-5v-20l-14-43-14-41-32-95-41-121v-2h-169v-1h168l-14-41-33-98-24-71-13-38-11-33-14-41-12-36-16-47-24-72-53-157-5-11-8-11-8-6-10-5-12-3z" fill="#30ABE8"/>
<path transform="translate(515,752)" d="m0 0 1 2h169l15 43 22 66 14 41 32 95 18 53 1 4v20l-3 10-6 11-8 9-11 7-10 4-5 1h-28l-13-4-10-6-10-9-105-98-106-99-4-4-2 1-3-5-10-10-8-7-7-7-8-7-7-7-8-7-7-7-8-7-7-7-8-7-7-7-8-7-7-7-8-7-5-10v-12l4-8 8-7 8-3z" fill="#0076D0"/>
<path transform="translate(427,82)" d="m0 0h365l13 4 10 6 10 10 6 10 16 47 1 5-9 4-69 26-141 53-72 27-27 10h-4l-15-43-22-66-14-41-7-20-4-8-8-10-10-7-13-5-6-1z" fill="#3BC7F2"/>
<path transform="translate(408,82)" d="m0 0h19l12 3 12 6 9 8 7 10 7 19 15 45 14 41 23 68 24 72 16 47 12 36 14 41 8 23-1 7-14 41h-3l-3-3-11-32-5-5-4-10-5-9-7-20-6-7-12-34-4-5-5-10-4-7-7-20-6-6-5-15-6-9-7-19-8-11-6-17-4-5-3-6-4-9-5-10-4-6-6-17-8-11-6-17-8-10-6-17-8-10-7-18-1-3-4-2-38-13-3-2 1-7 12-35 7-11 9-9 10-6z" fill="#0C4582"/>
<path transform="translate(656,754)" d="m0 0h29l15 43 22 66 14 41 32 95 18 53 1 4v20l-3 10-6 11-4 3-3-4-17-51-14-41-29-86-21-62-24-71-10-30z" fill="#095BA6"/>
<path transform="translate(537,502)" d="m0 0 4 4 11 32 10 9 10 29 2 2-1 7-3 7-4-2-5-8-6-17-6-8-6-18-7-9-6-17v-2l7 1 1-4z" fill="#0D4582"/>
</svg>
