<svg width="12" height="9" viewBox="0 0 12 9" fill="none" xmlns="http://www.w3.org/2000/svg">
<path d="M3.33332 5C3.15651 5 2.98694 4.94732 2.86192 4.85355C2.73689 4.75979 2.66666 4.63261 2.66666 4.5C2.66666 4.36739 2.73689 4.24021 2.86192 4.14645C2.98694 4.05268 3.15651 4 3.33332 4C3.51013 4 3.6797 4.05268 3.80473 4.14645C3.92975 4.24021 3.99999 4.36739 3.99999 4.5C3.99999 4.63261 3.92975 4.75979 3.80473 4.85355C3.6797 4.94732 3.51013 5 3.33332 5ZM3.33332 7C3.15651 7 2.98694 6.94732 2.86192 6.85355C2.73689 6.75979 2.66666 6.63261 2.66666 6.5C2.66666 6.36739 2.73689 6.24021 2.86192 6.14645C2.98694 6.05268 3.15651 6 3.33332 6C3.51013 6 3.6797 6.05268 3.80473 6.14645C3.92975 6.24021 3.99999 6.36739 3.99999 6.5C3.99999 6.63261 3.92975 6.75979 3.80473 6.85355C3.6797 6.94732 3.51013 7 3.33332 7ZM5.33332 6.5C5.33332 6.63261 5.40356 6.75979 5.52859 6.85355C5.65361 6.94732 5.82318 7 5.99999 7C6.1768 7 6.34637 6.94732 6.47139 6.85355C6.59642 6.75979 6.66666 6.63261 6.66666 6.5C6.66666 6.36739 6.59642 6.24021 6.47139 6.14645C6.34637 6.05268 6.1768 6 5.99999 6C5.82318 6 5.65361 6.05268 5.52859 6.14645C5.40356 6.24021 5.33332 6.36739 5.33332 6.5ZM8.66666 7C8.48985 7 8.32028 6.94732 8.19525 6.85355C8.07023 6.75979 7.99999 6.63261 7.99999 6.5C7.99999 6.36739 8.07023 6.24021 8.19525 6.14645C8.32028 6.05268 8.48985 6 8.66666 6C8.84347 6 9.01304 6.05268 9.13806 6.14645C9.26309 6.24021 9.33332 6.36739 9.33332 6.5C9.33332 6.63261 9.26309 6.75979 9.13806 6.85355C9.01304 6.94732 8.84347 7 8.66666 7ZM5.33332 4.5C5.33332 4.63261 5.40356 4.75979 5.52859 4.85355C5.65361 4.94732 5.82318 5 5.99999 5C6.1768 5 6.34637 4.94732 6.47139 4.85355C6.59642 4.75979 6.66666 4.63261 6.66666 4.5C6.66666 4.36739 6.59642 4.24021 6.47139 4.14645C6.34637 4.05268 6.1768 4 5.99999 4C5.82318 4 5.65361 4.05268 5.52859 4.14645C5.40356 4.24021 5.33332 4.36739 5.33332 4.5ZM8.66666 5C8.48985 5 8.32028 4.94732 8.19525 4.85355C8.07023 4.75979 7.99999 4.63261 7.99999 4.5C7.99999 4.36739 8.07023 4.24021 8.19525 4.14645C8.32028 4.05268 8.48985 4 8.66666 4C8.84347 4 9.01304 4.05268 9.13806 4.14645C9.26309 4.24021 9.33332 4.36739 9.33332 4.5C9.33332 4.63261 9.26309 4.75979 9.13806 4.85355C9.01304 4.94732 8.84347 5 8.66666 5ZM3.33332 2C3.15651 2 2.98694 2.05268 2.86192 2.14645C2.73689 2.24021 2.66666 2.36739 2.66666 2.5C2.66666 2.63261 2.73689 2.75979 2.86192 2.85355C2.98694 2.94732 3.15651 3 3.33332 3H8.66666C8.84347 3 9.01304 2.94732 9.13806 2.85355C9.26309 2.75979 9.33332 2.63261 9.33332 2.5C9.33332 2.36739 9.26309 2.24021 9.13806 2.14645C9.01304 2.05268 8.84347 2 8.66666 2H3.33332Z" fill="#A7A7A7"/>
<path fill-rule="evenodd" clip-rule="evenodd" d="M2 0C1.46957 0 0.960859 0.158035 0.585787 0.43934C0.210714 0.720644 0 1.10218 0 1.5V7.5C0 7.89782 0.210714 8.27936 0.585787 8.56066C0.960859 8.84196 1.46957 9 2 9H10C10.5304 9 11.0391 8.84196 11.4142 8.56066C11.7893 8.27936 12 7.89782 12 7.5V1.5C12 1.10218 11.7893 0.720644 11.4142 0.43934C11.0391 0.158035 10.5304 0 10 0H2ZM10 1H2C1.82319 1 1.65362 1.05268 1.5286 1.14645C1.40357 1.24021 1.33333 1.36739 1.33333 1.5V7.5C1.33333 7.63261 1.40357 7.75979 1.5286 7.85355C1.65362 7.94732 1.82319 8 2 8H10C10.1768 8 10.3464 7.94732 10.4714 7.85355C10.5964 7.75979 10.6667 7.63261 10.6667 7.5V1.5C10.6667 1.36739 10.5964 1.24021 10.4714 1.14645C10.3464 1.05268 10.1768 1 10 1Z" fill="#A7A7A7"/>
</svg>
