<svg width="202" height="202" viewBox="0 0 202 202" fill="none" xmlns="http://www.w3.org/2000/svg">
<path d="M131.493 63.0771C114.786 46.3737 87.6351 46.3061 70.8429 62.885L70.6472 63.0807C53.8781 79.8553 53.8852 107.142 70.6561 123.909L96.5622 149.807C97.6916 150.936 99.175 151.5 100.655 151.5C102.138 151.5 103.622 150.936 104.751 149.807C107.012 147.546 107.012 143.878 104.751 141.616L78.8415 115.717C66.6239 103.501 66.5848 83.6439 78.7276 71.3746L78.8468 71.2608C91.1071 59.0111 111.051 59.0147 123.301 71.2643C133.364 81.3245 134.807 98.542 126.655 111.315C124.935 114.009 125.727 117.586 128.423 119.306C131.121 121.033 134.696 120.238 136.416 117.543C147.606 100.016 145.534 77.1126 131.493 63.0771ZM121.127 125.236C123.384 127.497 123.388 131.165 121.127 133.423C120.001 134.555 118.518 135.122 117.038 135.122C115.551 135.122 114.068 134.555 112.935 133.425L87.0322 107.53C79.2933 99.7906 79.2933 87.1941 87.0322 79.4515C90.7816 75.7057 95.7671 73.6406 101.069 73.6406H101.076C106.377 73.6406 111.362 75.7092 115.11 79.4604C120.272 84.6221 122.185 92.1815 120.092 99.1894C119.172 102.252 115.951 103.995 112.885 103.079C109.822 102.165 108.077 98.9386 108.99 95.8722C109.865 92.9534 109.07 89.7998 106.919 87.6476C105.356 86.0824 103.28 85.2233 101.073 85.2198H101.069C98.8584 85.2198 96.7863 86.0824 95.2229 87.6423C91.9964 90.8653 91.9964 96.1159 95.2229 99.3388L121.127 125.236Z" fill="white"/>
</svg>
