<svg width="21" height="20" viewBox="0 0 21 20" fill="none" xmlns="http://www.w3.org/2000/svg">
<path d="M11.7867 8.7133C11.1041 8.031 10.1785 7.64771 9.21334 7.64771C8.24821 7.64771 7.32259 8.031 6.64 8.7133L4.06584 11.2866C3.38324 11.9692 2.99976 12.895 2.99976 13.8604C2.99976 14.8257 3.38324 15.7515 4.06584 16.4341C4.74844 17.1167 5.67424 17.5002 6.63959 17.5002C7.60493 17.5002 8.53074 17.1167 9.21334 16.4341L10.5 15.1475" stroke="black" stroke-width="1.66667" stroke-linecap="round" stroke-linejoin="round"/>
<path d="M9.21332 11.2867C9.89591 11.969 10.8215 12.3523 11.7867 12.3523C12.7518 12.3523 13.6774 11.969 14.36 11.2867L16.9342 8.71334C17.6168 8.03074 18.0002 7.10493 18.0002 6.13959C18.0002 5.17424 17.6168 4.24844 16.9342 3.56584C16.2516 2.88324 15.3257 2.49976 14.3604 2.49976C13.3951 2.49976 12.4693 2.88324 11.7867 3.56584L10.5 4.8525" stroke="black" stroke-width="1.66667" stroke-linecap="round" stroke-linejoin="round"/>
</svg>
