<?xml version="1.0" encoding="UTF-8"?>
<svg version="1.1" viewBox="0 0 1987 2048" width="1987" height="2048" xmlns="http://www.w3.org/2000/svg">
<path transform="translate(1415)" d="m0 0h33l41 2 32 3 40 6 35 7 30 8 38 12 28 11 27 12 26 13 24 14 21 13 17 12 16 12 16 13 13 11 13 12 15 14 8 8 7 8 12 13 9 11 13 16 10 15 9 16 10 25 6 19 6 27 4 26 2 25 1 21v27l-2 38-3 33-5 37-8 47-11 51-15 60-12 41-10 33-12 36-14 39-14 37-15 37-18 42-15 33-16 34-29 58-12 22-13 24-14 24-10 18 31-2 37-5 49-9 18-2h25l19 3 18 6 17 9 11 9 11 11 10 15 7 17 4 18v25l-3 15-7 19-9 16-12 16-11 12-18 18-14 11-13 10-15 10-21 13-26 14-23 11-27 10-32 9-26 6-36 6-36 4-16 1h-55l-13-1-3 36-2 49-3 44-5 51-7 49-7 37-9 38-11 36-10 26-9 20-11 22-12 20-12 17-11 14-11 12-8 9-8 7-11 10-19 14-21 13-17 9-26 11-25 9-36 10-36 8-26 4-23 2h-30l-28-3-27-6-20-7-25-12-18-12-16-13-19-19-11-14-12-18-9-16-10-21-11-29-15-45-8-32-6-35-5-41-4-50-3-57-2-63v-29l-23 9-23 7-26 6-28 4-11 1h-53l-21-2-32-5-27-6-30-10-20-9-21-12-13-10-12-11-6-6v-2l-5 3-18 13-17 10-17 8-21 7-20 4-9 1h-28l-25-4-20-6-21-9-16-9-16-11-16-13-13-12-13-13-9-11-12-14-13-18-18-27-16-27-13-24-9-17-11-23-14-31-18-43-21-56-15-43-16-49-20-67-16-59-14-54-13-55-14-64-12-61-10-59-6-42-3-33-1-20v-62l3-48 5-40 7-38 8-32 8-26 11-29 11-24 13-25 13-21 12-17 11-14 12-14 16-17 12-11 14-12 20-15 15-10 15-9 22-12 24-11 24-9 25-8 36-9 35-6 38-4 18-1h66l42 3 35 4 39 6 42 8 47 11 43 12 38 12 7-1 26-14 22-10 26-10 25-8 32-8 27-5 33-4 35-2h38l44 2 52 5 42 6 29-8 29-7 41-8 34-5 37-4 31-2z" fill="#FDFDFD"/>
<path transform="translate(1007,134)" d="m0 0h45l31 2 39 5 36 7 31 8 36 12 32 13 33 16 23 13 24 15 11 8 14 10 14 11 11 9 14 12 15 14 27 27 7 8 9 10 9 11 11 14 15 20 22 33 15 25 13 24 14 28 13 31 4 11v3l-21-1-20-1h-21l-28 2-26 4-20 5-17 6-19 9-15 10-11 9-9 9-10 13-9 16-6 14-5 18-3 16-1 9v39l3 27 5 26 8 31 12 37 14 36 12 28 13 28 8 16 8 17 10 19 16 30 10 18 14 25 13 24 8 16 9 20 12 22 18 27 13 17 11 14 12 16v2l-19 7-16 8-12 9-12 12-9 14-8 18-5 20-2 14-1 14v24l-6 59-10 86-10 81-10 76-10 69-7 41-8 32-7 21-8 18-8 15-10 14-11 12-10 10-15 11-21 12-21 9-30 10-28 7-20 4-23 3h-35l-24-4-18-6-21-11-11-9-10-9-10-11-11-16-10-17-10-21-8-21-4-17-5-32-5-51-3-48-2-43-2-80v-148l1-45v-37l-6-25-8-18-9-15-11-13-7-7-14-10-17-8-16-5-13-2h-11l-12 1 1-8 13-40 18-48 16-36 13-30 11-29 7-22 7-27 6-31 4-33 2-32v-40l-3-47-5-42-7-43-7-35-5-19-8-22-9-17-7-10-7-9-15-15-16-11-16-8-19-7-26-5-11-1h-30l-27 3-25 5-23 6-35 12-25 11-19 9-9 5h-2l1-18 6-46 7-38 10-42 12-40 11-30 13-30 15-30 13-22 8-12 10-14 10-13 13-15 14-15 15-14 14-11 15-11 19-12 27-14 19-8 33-11 26-6 25-4 19-2z" fill="#316690"/>
<path transform="translate(428,139)" d="m0 0h68l37 3 40 5 40 7 41 9 36 9 40 12 9 3-6 7-8 8-7 8-11 13-12 16-10 14-11 17-15 26-11 21-13 29-11 28-12 36-9 32-8 34-7 37-6 42-4 41-1 17v66l3 58v85l-2 36-4 44-4 32-1 14v34l2 22 4 24 6 24 8 23 11 25 11 20 12 18 12 16 11 12 7 8 8 8 8 7-1 4-9 9-7 8-15 16-9 10-11 12-7 8-9 10-7 8-9 10-9 11-11 12-9 11-9 10-9 11-13 15-9 11-9 10-13 13-14 10-14 7-16 4h-8l-10-2-13-5-11-6-13-10-13-12-11-12-11-14-12-17-11-17-13-22-15-28-12-24-16-36-15-36-15-39-16-45-14-42-15-49-15-52-15-57-14-56-12-53-10-47-10-52-9-53-6-45-2-36v-48l2-37 4-35 7-38 7-27 10-30 10-23 13-25 14-21 10-13 12-14 15-15 11-9 13-10 19-12 20-11 29-12 25-8 25-6 22-4 32-4z" fill="#316690"/>
<path transform="translate(1415)" d="m0 0h33l41 2 32 3 40 6 35 7 30 8 38 12 28 11 27 12 26 13 24 14 21 13 17 12 16 12 16 13 13 11 13 12 15 14 8 8 7 8 12 13 9 11 13 16 10 15 9 16 10 25 6 19 6 27 4 26 2 25 1 21v27l-2 38-3 33-5 37-8 47-11 51-15 60-12 41-10 33-12 36-14 39-14 37-15 37-18 42-15 33-16 34-29 58-12 22-13 24-14 24-10 18 31-2 37-5 49-9 18-2h25l19 3 18 6 17 9 11 9 11 11 10 15 7 17 4 18v25l-3 15-7 19-9 16-12 16-11 12-18 18-14 11-13 10-15 10-21 13-26 14-23 11-27 10-32 9-26 6-36 6-36 4-16 1h-55l-13-1-3 36-2 49-3 44-5 51-7 49-7 37-9 38-11 36-10 26-9 20-11 22-12 20-12 17-11 14-11 12-8 9-8 7-11 10-19 14-21 13-17 9-26 11-25 9-36 10-36 8-26 4-23 2h-30l-28-3-27-6-20-7-25-12-18-12-16-13-19-19-11-14-12-18-9-16-10-21-11-29-15-45-8-32-6-35-5-41-4-50-3-57-2-63v-29l-23 9-23 7-26 6-28 4-11 1h-53l-21-2-32-5-27-6-30-10-20-9-21-12-13-10-12-11-6-6v-2l-5 3-18 13-17 10-17 8-21 7-20 4-9 1h-28l-25-4-20-6-21-9-16-9-16-11-16-13-13-12-13-13-9-11-12-14-13-18-18-27-16-27-13-24-9-17-11-23-14-31-18-43-21-56-15-43-16-49-20-67-16-59-14-54-13-55-14-64-12-61-10-59-6-42-3-33-1-20v-62l3-48 5-40 7-38 8-32 8-26 11-29 11-24 13-25 13-21 12-17 11-14 12-14 16-17 12-11 14-12 20-15 15-10 15-9 22-12 24-11 24-9 25-8 36-9 35-6 38-4 18-1h66l42 3 35 4 39 6 42 8 47 11 43 12 38 12 7-1 26-14 22-10 26-10 25-8 32-8 27-5 33-4 35-2h38l44 2 52 5 42 6 29-8 29-7 41-8 34-5 37-4 31-2zm-17 55-31 2-39 4-39 6-40 8-28 7-27 8-10 4-10-1-28-6-31-5-38-4-17-1h-60l-34 3-36 6-32 8-30 10-23 10-16 8-17 9-19 12-2 1-29-10-31-10-47-13-43-10-42-8-34-5-34-4-25-2-22-1h-48l-42 3-39 6-31 7-29 9-21 8-24 11-22 12-21 14-17 13-10 9-8 7-17 17-9 11-11 14-11 16-12 20-12 23-10 24-7 20-7 22-7 29-6 33-4 31-3 40v76l3 37 7 50 10 57 11 55 12 55 15 63 13 51 15 54 12 41 15 48 12 36 12 35 15 40 15 37 11 25 12 26 12 25 15 28 17 28 16 24 9 12 8 10 12 14 11 12 8 7 13 11 15 10 19 10 15 5 13 3 9 1h16l14-2 15-4 18-8 15-9 13-10 12-11 3-2v-2h2l7-8 9-10 9-11 11-13 12-14 11-13 13-15 9-10 9-11 14-15 7-8 10-11 7-8 12-13 9-10 14-15 8-9 6 2 22 10 27 9 29 6 18 2h12l-1 5-12 14-10 13-9 11-9 10-13 9-14 7-25 8-39 9-31 7-27 9-15 8-12 9-9 10-6 13-1 4v18l4 11 6 10 9 10 14 11 25 13 22 8 25 6 30 5 22 2h43l27-3 28-6 30-10 29-14 18-11 16-12 14-11-1 35v20l1 79 2 66 2 46 3 44 4 43 5 36 5 25 5 18 11 26 9 19 13 22 10 14 11 13 10 11 8 7 15 12 15 9 16 8 19 7 21 5 20 3 27 1 21-1 29-4 29-6 36-10 27-10 24-11 21-12 15-11 11-9 14-13 7-8 13-17 12-20 12-25 9-25 7-25 6-27 9-56 12-87 12-94 12-103 2-19 9 3 20 4 18 2 16 1h38l39-3 40-6 31-7 27-8 24-9 26-13 24-14 15-10 15-11 10-8 12-11 12-12 11-15 7-15 2-9v-13l-4-12-6-9-7-6-10-5-12-3h-28l-30 5-33 6-31 4-23 2h-49l-23-3-19-5-16-8h-2l16-25 13-21 17-28 16-28 15-27 15-28 20-39 18-37 15-33 17-39 18-44 17-45 12-34 12-36 13-42 11-40 12-48 10-48 8-48 4-31 4-48v-61l-3-31-4-23-5-19-8-22-9-17-8-11-13-16-13-15-9-9-7-8-10-10-8-7-12-11-11-9-15-12-17-12-15-10-20-12-16-9-19-10-32-14-36-13-31-9-30-7-27-5-28-4-32-3-18-1z" fill="#000101"/>
<path transform="translate(1407,112)" d="m0 0h45l45 3 37 5 35 7 34 9 32 11 28 12 16 8 21 11 26 16 15 11 16 12 14 12 10 9 13 12 11 11 7 8 10 11 11 14 6 8 8 16 5 15 5 23 3 30v53l-3 40-6 46-7 39-8 39-8 33-8 31-11 38-11 35-12 36-17 47-18 46-15 35-16 36-16 34-28 56-12 22-13 24-14 24-17 29-15 24-4 6-5-5-5-6 2-5 14-27 8-19 8-24 6-26 4-25 2-25v-44l-2-33-10-89-2-24-1-32 2-33 4-34 9-62 3-30 1-44v-19l-4-18-6-20-10-27-12-27-12-25-12-22-14-24-14-22-16-23-14-19-13-16-11-14-12-13-7-8-8-8-7-8-9-9-8-7-8-8-8-7-13-11-14-11-18-14-33-22-18-11-27-15-31-15 1-2 39-7 31-4 37-3z" fill="#316690"/>
<path transform="translate(811,598)" d="m0 0 23 1 23 5 13 6 11 7 9 8 9 12 8 15 5 15 6 27 7 38 6 42 4 46v65l-3 32-6 35-6 24-12 36-12 29-13 29-11 26-16 43-13 38-5 18-1 1h-12l-23-3-20-5-20-7-16-8-16-9-15-11-11-9-22-22-13-17-11-17-12-23-8-21-6-21-4-19-2-17v-44l6-52 3-36 2-50v-50l-2-53-2-38 13-10 19-11 23-12 23-10 28-10 30-8 26-4z" fill="#316690"/>
<path transform="translate(1504,589)" d="m0 0h41l35 3 2 1v12l-3 33-11 77-3 31-1 14v41l4 48 8 70 2 26v56l-3 27-6 27-9 27-5 11-3-1-13-27-11-23-16-29-15-27-13-24-15-28-15-30-13-28-11-25-15-38-13-40-7-28-4-23-1-9v-39l3-16 5-14 7-13 9-11 14-11 19-9 20-6 25-4z" fill="#316690"/>
<path transform="translate(907,1265)" d="m0 0h10l16 6 10 8 8 10 6 12 4 13v18l-4 10-8 11-9 11-14 15-10 9-13 10-19 12-23 11-24 8-25 5-21 2h-28l-23-2-29-5-20-5-15-6-13-7-1-2 13-5 22-6 41-9 32-9 19-7 16-8 14-9 13-11 13-14 11-14 13-16 8-10 11-12 5-5 7-6z" fill="#316690"/>
<path transform="translate(1595,1257)" d="m0 0 5 2 14 9 16 7 15 5 25 5 16 2 18 1h27l31-2 35-4 46-8 9-1-4 5-14 11-19 13-17 10-25 13-20 8-27 8-28 6-34 5-21 2-18 1h-28l-25-2-21-4-13-5-2-2v-26l3-18 5-12 6-9 10-8 14-6z" fill="#316690"/>
<path transform="translate(816,630)" d="m0 0h13l21 3 15 5 13 7 8 9 2 5v8l-5 10-7 8-10 7-11 5-7 2h-20l-15-5-10-7-10-9-9-13-3-9 1-9 4-6 6-5 10-4z" fill="#FDFDFD"/>
<path transform="translate(1482,616)" d="m0 0h21l14 3 8 5 4 6v7l-4 10-7 9-8 8-11 7-12 4-12 1-12-2-16-8-9-8-6-10v-8l4-6 8-7 14-6 16-4z" fill="#FDFDFD"/>
</svg>
