<svg width="400" height="400" viewBox="0 0 400 400" fill="none" xmlns="http://www.w3.org/2000/svg">
<rect x="3.08824" y="3.08824" width="393.824" height="393.824" rx="196.912" stroke="#42446E" stroke-width="6.17647"/>
<path d="M176.296 73.376H94.4263V149.791H176.296V73.376Z" fill="#112B46"/>
<path d="M176.296 73.376H94.4263V81.4577H176.296V73.376Z" fill="#1D262D"/>
<path d="M158.599 77.5083C158.599 78.3266 157.936 78.9896 157.118 78.9896C156.3 78.9896 155.637 78.3266 155.637 77.5083C155.637 76.6901 156.3 76.0271 157.118 76.0271C157.936 76.0271 158.599 76.6901 158.599 77.5083Z" fill="#606BF1"/>
<path d="M164.784 77.5083C164.784 78.3266 164.121 78.9896 163.303 78.9896C162.485 78.9896 161.822 78.3266 161.822 77.5083C161.822 76.6901 162.485 76.0271 163.303 76.0271C164.121 76.0271 164.784 76.6901 164.784 77.5083Z" fill="#FBD15B"/>
<path d="M170.528 77.6643C170.528 78.4826 169.865 79.1456 169.047 79.1456C168.229 79.1456 167.566 78.4826 167.566 77.6643C167.566 76.8461 168.229 76.1831 169.047 76.1831C169.865 76.1831 170.528 76.8461 170.528 77.6643Z" fill="#FF8578"/>
<path d="M120.579 88.9706H108.983V89.9449H120.579V88.9706Z" fill="#FF8578"/>
<path d="M134.189 88.9706H122.593V89.9449H134.189V88.9706Z" fill="#FBD15B"/>
<path d="M130.552 94.2198H112.57V95.1942H130.552V94.2198Z" fill="#606BF1"/>
<path d="M142.664 94.2198H133.524V95.1942H142.664V94.2198Z" fill="#FF8578"/>
<path d="M126.705 99.4701H118.808V100.444H126.705V99.4701Z" fill="#FBD15B"/>
<path d="M157.467 99.4701H131.269V100.444H157.467V99.4701Z" fill="#FBD15B"/>
<path d="M154.882 104.72H124.941V105.695H154.882V104.72Z" fill="#606BF1"/>
<path d="M126.67 109.97H117.455V110.945H126.67V109.97Z" fill="#FF8578"/>
<path d="M139.828 109.97H130.613V110.945H139.828V109.97Z" fill="#606BF1"/>
<path d="M122.388 137.208H108.983V138.182H122.388V137.208Z" fill="#FF8578"/>
<path d="M140.49 137.208H127.084V138.182H140.49V137.208Z" fill="#FBD15B"/>
<path d="M158.102 137.208H144.697V138.182H158.102V137.208Z" fill="#FF8578"/>
<path d="M138.769 131.958H112.57V132.933H138.769V131.958Z" fill="#606BF1"/>
<path d="M169.051 131.958H142.853V132.933H169.051V131.958Z" fill="#FF8578"/>
<path d="M144.805 126.708H118.808V127.682H144.805V126.708Z" fill="#FF8578"/>
<path d="M154.308 126.708H147.072V127.682H154.308V126.708Z" fill="#FBD15B"/>
<path d="M126.897 121.458H117.11V122.432H126.897V121.458Z" fill="#FBD15B"/>
<path d="M141.881 121.458H132.094V122.432H141.881V121.458Z" fill="#606BF1"/>
<path d="M157.962 121.458H148.175V122.432H157.962V121.458Z" fill="#FF8578"/>
<path d="M142.177 116.208H128.454V117.182H142.177V116.208Z" fill="#FBD15B"/>
<path d="M123.277 116.208H109.554V117.182H123.277V116.208Z" fill="#606BF1"/>
<path d="M102.641 88.0347H101.394V89.2826H102.641V88.0347Z" fill="#F9FBFC"/>
<path d="M102.642 133.807H101.395V131.263H102.642V133.807ZM102.642 127.446H101.395V124.903H102.642V127.446ZM102.642 121.085H101.395V118.54H102.642V121.085ZM102.642 114.724H101.395V112.18H102.642V114.724ZM102.642 108.364H101.395V105.819H102.642V108.364ZM102.642 102.004H101.395V99.459H102.642V102.004ZM102.642 95.6422H101.395V93.0977H102.642V95.6422Z" fill="#F9FBFC"/>
<path d="M102.641 137.624H101.394V138.872H102.641V137.624Z" fill="#F9FBFC"/>
<path d="M261.326 57.1428H193.911V98.6971H261.326V57.1428Z" fill="#FF8578"/>
<path d="M220.094 73.8561L212.074 77.2793L220.094 80.6522L219.045 83.0758L209.425 78.7782V75.8048L219.045 71.4819L220.094 73.8561Z" fill="#F9FBFC"/>
<path d="M231.914 65.9363L226.093 88.2983L223.319 87.6487L229.166 65.3119L231.914 65.9363Z" fill="#F9FBFC"/>
<path d="M245.834 75.8055V78.7789L236.214 83.0766L235.165 80.6529L243.161 77.28L235.165 73.8569L236.214 71.4835L245.834 75.8055Z" fill="#F9FBFC"/>
<path d="M297.409 137.646H259.011V165.001H297.409V137.646Z" fill="#606BF1"/>
<path d="M275.073 143.551C273.838 143.551 273.426 143.884 273.426 144.806V148.923C273.426 150.531 272.76 151.021 271.642 151.335C272.76 151.629 273.426 152.119 273.426 153.706V157.824C273.426 158.745 273.858 159.078 275.073 159.078V160.882C271.956 160.882 271.073 159.882 271.073 157.804V153.902C271.073 152.784 270.779 152.354 269.76 152.354V150.295C270.779 150.295 271.073 149.844 271.073 148.727V144.825C271.073 142.727 271.956 141.747 275.073 141.747V143.551Z" fill="#F1F2F2"/>
<path d="M285.347 144.826V148.727C285.347 149.845 285.64 150.296 286.68 150.296V152.355C285.641 152.355 285.347 152.786 285.347 153.903V157.804C285.347 159.882 284.465 160.883 281.347 160.883V159.079C282.562 159.079 282.994 158.746 282.994 157.825V153.707C282.994 152.12 283.66 151.629 284.778 151.336C283.66 151.022 282.994 150.532 282.994 148.924V144.807C282.994 143.885 282.582 143.552 281.347 143.552V141.748C284.465 141.748 285.347 142.728 285.347 144.826Z" fill="#F1F2F2"/>
<path d="M111.446 63.1022H68.3692V91.9145H111.446V63.1022Z" fill="#FBD15B"/>
<path d="M82.626 71.3727C80.569 73.9466 80.6009 77.708 82.6965 80.2508C85.0773 83.1403 89.156 83.6052 92.0866 81.6506L96.6075 86.1715C96.798 86.3621 97.1076 86.3621 97.2981 86.1715L98.5687 84.9018C98.7592 84.7113 98.7592 84.4016 98.5687 84.2111L94.0478 79.6902C95.879 76.9443 95.5861 73.1904 93.165 70.7692C90.2193 67.8236 85.3014 68.025 82.626 71.3727ZM91.7005 79.3042C89.751 81.2537 86.5796 81.2528 84.63 79.3042C82.6805 77.3546 82.6805 74.1832 84.63 72.2337C86.5796 70.2842 89.751 70.2842 91.7005 72.2337C93.6492 74.1824 93.65 77.3546 91.7005 79.3042Z" fill="#F9FBFC"/>
<path d="M236.754 152.099C236.66 153.05 235.359 162.986 225.142 162.986C214.415 162.986 216.212 152.366 216.212 152.366L216.199 152.299C217.245 152.084 218.371 152.004 219.564 152.138V147.109L231.739 140.298H232.181V152.031C232.181 152.031 234.112 151.803 236.754 152.099Z" fill="url(#paint0_radial_107_4830)"/>
<path d="M230.841 117.854C232.567 119.605 233.872 121.871 234.5 124.639C235.67 129.797 234.569 135.254 233.072 140.225C232.816 141.075 232.526 141.933 232.001 142.649C231.626 143.159 231.144 143.58 230.665 143.996C228.499 145.882 226.335 147.768 224.174 149.66C222.71 150.942 213.693 152.01 211.972 150.78C205.34 146.039 204.065 132.302 205.392 125.279C207.594 113.628 222.569 109.463 230.841 117.854Z" fill="url(#paint1_radial_107_4830)"/>
<path d="M227.116 132.764C227.204 131.642 228.358 130.414 229.515 131.141C230.713 131.895 230.431 133.887 229.934 134.983C229.545 135.842 228.243 136.783 227.361 135.984C226.621 135.314 227.77 134.524 227.808 133.913C227.841 133.362 226.74 132.968 227.191 132.378" fill="#F7B094"/>
<path d="M227.329 137.948C228.537 138.311 230.584 137.39 231.103 135.706C231.62 134.023 231.565 132.101 231.565 132.101C231.565 132.101 232.173 133.625 231.86 136.076C231.547 138.528 230.688 140.864 228.764 140.894C226.839 140.925 227.329 137.948 227.329 137.948Z" fill="#F7B094"/>
<path d="M225.846 136.204C225.806 136.223 225.762 136.237 225.711 136.245C224.962 136.35 224.664 135.444 224.552 134.877C224.293 133.553 224.334 132.214 224.287 130.875C224.276 130.54 224.303 130.122 224.166 129.806C223.745 128.844 222.625 128.218 222.283 127.224C221.885 126.067 223.008 124.914 222.563 123.647C221.88 121.708 219.39 121.262 217.589 121.283C214.886 121.315 212.252 121.816 209.585 122.23C206.769 122.667 203.171 123.082 200.69 121.301C197.7 119.155 196.451 113.561 198.682 110.499C199.899 108.83 202.206 107.941 204.226 107.895C206.369 107.846 208.179 109.123 210.144 109.766C211.709 110.277 213.223 108.78 214.686 108.487C216.524 108.12 217.306 110.127 218.932 110.183C220.512 110.236 222.063 109.002 223.6 108.721C226.663 108.162 226.483 111.238 228.539 112.289C229.816 112.942 231.467 112.547 232.759 113.211C233.741 113.715 233.879 114.601 234.093 115.605C234.277 116.473 234.288 117.475 234.574 118.3C234.83 119.041 235.454 119.51 235.94 120.091C236.47 120.723 236.808 121.463 237.078 122.257C237.674 124.016 237.806 125.916 237.643 127.759C237.37 130.853 236.375 133.897 235.342 136.811C234.671 138.702 234.422 140.671 233.39 142.46C233.113 142.941 231.883 144.345 231.426 143.299C231.327 143.075 231.343 142.82 231.36 142.576C231.496 140.627 233.311 128.068 228.554 129.577C227.555 129.894 226.885 130.724 226.513 131.673C226.068 132.806 226.036 133.949 226.093 135.147C226.102 135.318 226.106 135.49 226.099 135.662C226.091 135.884 226.035 136.109 225.846 136.204Z" fill="#3D3D7A"/>
<path d="M219.564 150.988C224.974 150.119 228.543 145.845 228.543 145.845C228.543 145.845 227.083 153.048 219.239 153.429L219.564 150.988Z" fill="#F7B094"/>
<path d="M228.444 249.153H236.187V323.446C236.187 324.199 235.576 324.81 234.823 324.81H229.808C229.055 324.81 228.444 324.199 228.444 323.446V249.153Z" fill="#0A2033"/>
<path d="M211.023 250.216H253.607V251.378C253.607 254.304 251.235 256.677 248.308 256.677H216.322C213.396 256.677 211.023 254.304 211.023 251.378V250.216Z" fill="#30475E"/>
<path d="M228.444 316.002H236.187V333.218C236.187 333.971 235.576 334.582 234.823 334.582H229.808C229.055 334.582 228.444 333.971 228.444 333.218V316.002Z" fill="#0A2033"/>
<path d="M192.133 330.05C192.133 332.553 194.162 334.582 196.665 334.582C199.167 334.582 201.197 332.553 201.197 330.05C201.197 327.548 199.167 325.519 196.665 325.519C194.162 325.519 192.133 327.548 192.133 330.05Z" fill="#0A2033"/>
<path d="M263.434 330.05C263.434 332.553 265.463 334.582 267.966 334.582C270.468 334.582 272.497 332.553 272.497 330.05C272.497 327.548 270.468 325.519 267.966 325.519C265.462 325.519 263.434 327.548 263.434 330.05Z" fill="#0A2033"/>
<path d="M224.526 323.844H240.104V310.232H224.526V323.844Z" fill="#30475E"/>
<path d="M192.133 327.048H272.497V325.468C272.497 322.803 270.336 320.642 267.671 320.642H196.96C194.295 320.642 192.134 322.803 192.134 325.468V327.048H192.133Z" fill="#FBD15B"/>
<path d="M232.315 258.203H229.629V309.017H232.315V258.203Z" fill="#30475E"/>
<path d="M262.736 195.303C260.878 195.245 259.368 196.782 259.475 198.638C260.007 207.861 258.052 230.361 249.461 238.038C238.958 247.424 209.188 246.146 209.188 246.146C209.188 246.146 204.272 252.18 214.104 253.52C223.937 254.861 251.648 253.967 258.352 247.71C264.842 241.653 268.694 225.784 265.791 198.164C265.624 196.579 264.328 195.352 262.736 195.303Z" fill="#FBD15B"/>
<path d="M206.96 309.018L210.5 317.089L199.653 321.85L196.099 313.751L206.96 309.018Z" fill="url(#paint2_radial_107_4830)"/>
<path d="M258.113 219.301C257.442 220.642 209.246 219.328 204.694 219.744C204.694 219.744 175.195 233.822 170.958 247.003C170.529 248.331 170.408 250.087 170.542 252.179C171.722 270.736 192.854 315.172 192.854 315.172L196.098 313.75L206.96 309.017L208.501 308.346C208.501 308.346 191.741 258.4 195.093 255.719C198.445 253.037 236.432 246.333 249.612 242.766C262.806 239.187 258.113 219.301 258.113 219.301Z" fill="#56548C"/>
<path d="M165.606 311.094L166.453 323.221H154.613L153.766 311.067L165.606 311.094Z" fill="url(#paint3_radial_107_4830)"/>
<path d="M204.453 219.328L204.024 219.516C204.024 219.516 154.641 226.448 146.596 240.3C141.367 249.31 151.489 315.149 151.489 315.149L168.96 315.189C168.96 315.189 166.346 260.345 167.218 257.288C168.197 253.802 169.873 252.541 170.543 252.18C170.409 250.088 170.53 248.331 170.959 247.004C175.196 233.823 204.695 219.744 204.695 219.744C204.6 219.677 204.519 219.53 204.453 219.328Z" fill="#3D3D7A"/>
<path d="M252.151 173.699L248.84 174.155C248.84 174.155 248.035 183.085 246.064 192.016L204.806 207.676L204.243 210.667C204.069 210.653 203.895 210.64 203.734 210.626C203.747 211.243 203.747 211.846 203.774 212.41C203.868 215.855 204.095 218.336 204.458 219.328C204.525 219.53 204.606 219.676 204.7 219.744C205.821 220.657 220.412 218.887 236.188 224.679C249.87 229.703 257.538 235.19 257.893 234.453C262.191 225.514 254.363 190.434 252.151 173.699Z" fill="#FF8578"/>
<path d="M247.847 194.161C246.747 199.444 243.905 209.956 238.327 211.364C231.045 213.214 216.967 213.12 203.773 212.41C203.746 211.846 203.746 211.243 203.733 210.626C203.894 210.64 204.068 210.653 204.242 210.666L204.805 207.676L246.063 192.016C248.035 183.085 248.839 174.155 248.839 174.155C248.839 174.155 248.839 174.209 248.852 174.303C248.933 175.684 249.496 186.357 247.847 194.161Z" fill="#F4675D"/>
<path d="M206.491 160.519C205.753 161.86 204.694 176.207 204.117 190.447L195.683 182.576C199.263 175.644 206.491 160.519 206.491 160.519Z" fill="#F4675D"/>
<path d="M201.436 200.852C194.316 202.085 187.773 203.144 187.773 203.144L187.759 203.493C179.834 197.164 167.78 179.237 167.78 179.237C167.78 179.237 171.387 174.905 172.285 173.766C172.42 173.591 192.076 187.12 193.082 186.999C193.337 186.973 194.343 185.203 195.684 182.575L204.118 190.446C203.984 193.838 203.876 197.217 203.809 200.422C203.018 200.57 202.226 200.704 201.436 200.852Z" fill="#F7B094"/>
<path d="M187.772 203.144L187.598 209.017H166.145C166.145 209.017 168.276 200.637 174.083 200.637C179.889 200.637 182.128 203.708 182.128 203.708L187.772 203.144Z" fill="url(#paint4_radial_107_4830)"/>
<path d="M172.125 173.632L172.286 173.767C171.387 174.906 167.781 179.238 167.781 179.238L165.542 177.656C165.542 177.656 163.075 179.158 160.205 177.588C157.215 175.966 159.066 172.092 159.219 171.633C158.639 171.797 155.057 174.692 154.494 174.384C153.931 174.075 153.515 173.057 157.524 169.101C161.52 165.146 166.964 170.228 167.125 170.228L172.125 173.632Z" fill="#F7B094"/>
<path d="M160.671 176.915C160.671 176.915 159.807 178.534 161.344 179.238C162.88 179.941 165.87 180.449 167.154 180.325C168.438 180.202 169.46 178.404 169.46 178.404L165.57 174.754H162.461L160.671 176.915Z" fill="#F7B094"/>
<path d="M160.441 177.71C160.671 176.915 162.879 177.339 164.249 177.372C165.258 177.396 165.81 177.132 166.122 176.363C166.434 175.595 164.97 174.37 164.681 174.754C164.393 175.139 165.21 175.679 165.233 176.189C165.258 176.7 163.792 176.868 162.665 176.868C161.536 176.868 159.589 177.161 159.589 177.161L160.441 177.71Z" fill="#E8987C"/>
<path d="M243.967 199.631L222.956 192.19C221.428 195.046 219.791 197.192 218.169 197.621C215.715 198.264 209.789 199.377 203.808 200.423C203.017 200.571 202.226 200.704 201.435 200.852C194.315 202.085 187.772 203.144 187.772 203.144L187.758 203.493V203.721L187.597 209.017V210.361C187.597 210.361 194.73 209.996 203.728 210.626C216.319 211.524 232.556 212.061 237.933 209.527C240.454 208.333 242.465 204.418 244.047 199.591C244.021 199.605 243.994 199.618 243.967 199.631Z" fill="url(#paint5_radial_107_4830)"/>
<path d="M222.956 192.19L243.967 199.631L243.016 202.439L222.22 193.519L222.956 192.19Z" fill="#F7B094"/>
<path d="M222.956 192.19C221.428 195.046 219.791 197.192 218.169 197.621C215.715 198.264 209.789 199.377 203.808 200.423C203.875 197.218 203.983 193.839 204.117 190.447C204.694 176.207 205.753 161.86 206.491 160.519C207.697 158.28 210.995 153.413 216.198 152.3L216.211 152.367C216.211 152.367 214.414 162.987 225.141 162.987C235.359 162.987 236.659 153.051 236.753 152.099C242.009 152.689 250.067 155.318 251.18 165.884C251.408 167.975 251.73 170.657 252.145 173.701L248.834 174.157C248.834 174.157 247.493 189.04 244.047 199.593C244.02 199.606 243.993 199.62 243.966 199.633L222.956 192.19Z" fill="#FF8578"/>
<path d="M222.739 190.253L231.129 169.944L224.948 191.074L222.739 190.253Z" fill="#6D4B35"/>
<path d="M236.754 152.099H232.182C232.182 152.099 225.675 159.243 221.493 159.243C217.31 159.243 219.565 152.139 219.565 152.139H217.525C211.663 152.139 206.73 156.541 206.067 162.366C205.99 163.033 205.922 163.666 205.862 164.238C205.415 168.56 222.924 171.705 222.924 171.705L231.938 171.201L237.413 160.519L238.504 156.145L236.754 152.099Z" fill="#FF8578"/>
<path d="M181.581 331.14C181.988 333.324 183.502 334.878 185.687 334.47L214.809 329.038C215.546 328.901 216.032 328.193 215.894 327.456L215.412 324.872C215.412 324.872 184.785 330.231 181.566 331.124L181.581 331.14Z" fill="#F1F2F2"/>
<path d="M190.245 323.808C190.549 323.544 190.841 323.282 191.145 323.019C191.729 322.496 192.304 321.987 192.857 321.494C193.149 321.233 193.441 320.971 193.712 320.726C194.244 320.249 194.745 319.803 195.194 319.402C195.517 319.111 195.818 318.835 196.089 318.59C196.587 318.144 196.994 317.779 197.278 317.524C197.525 317.304 197.891 317.293 198.145 317.506C199.343 318.512 203.212 320.814 210.22 316.477C210.553 316.271 210.993 316.379 211.174 316.725L215.412 324.87C215.412 324.87 184.784 330.229 181.566 331.122C182.624 330.464 186.534 327.081 190.245 323.808Z" fill="#3D3D7A"/>
<path d="M135.716 330.854C135.771 333.076 137.018 334.85 139.239 334.796L168.855 334.074C169.604 334.055 170.197 333.433 170.178 332.684L170.114 330.056C170.114 330.056 139.024 330.468 135.704 330.836L135.716 330.854Z" fill="#F1F2F2"/>
<path d="M145.438 324.996C145.78 324.783 146.11 324.573 146.452 324.36C147.111 323.938 147.76 323.526 148.384 323.129C148.714 322.917 149.044 322.706 149.351 322.507C149.952 322.121 150.518 321.76 151.025 321.437C151.39 321.2 151.731 320.977 152.038 320.778C152.601 320.417 153.06 320.122 153.382 319.915C153.661 319.736 154.024 319.784 154.24 320.035C155.262 321.219 158.715 324.108 166.325 320.943C166.686 320.793 167.104 320.969 167.227 321.341L170.114 330.057C170.114 330.057 139.023 330.469 135.704 330.837C136.853 330.353 141.253 327.636 145.438 324.996Z" fill="#3D3D7A"/>
<path d="M114.649 210.361L98.8331 168.179H143.86L159.677 210.361H114.649Z" fill="#ABB5BA"/>
<path d="M162.46 210.361H159.677L143.86 168.179L146.389 168.291L161.017 206.473L162.46 210.361Z" fill="#8495A0"/>
<path d="M161.587 210.361H191.34L191.26 207.701C191.26 207.701 161.476 207.701 160.979 207.701" fill="#8495A0"/>
<path d="M288.346 218.406H281.182V336.094H288.346V218.406Z" fill="#8495A0"/>
<path d="M249.461 218.406H242.298V336.094H249.461V218.406Z" fill="#ABB5BA"/>
<path d="M124.888 218.406H117.724V336.094H124.888V218.406Z" fill="#8495A0"/>
<path d="M86.0038 218.406H78.8402V336.094H86.0038V218.406Z" fill="#ABB5BA"/>
<path d="M295.515 218.853H71.9779C70.0552 218.853 68.4959 217.294 68.4959 215.371V213.843C68.4959 211.92 70.0552 210.361 71.9779 210.361H295.514C297.437 210.361 298.996 211.92 298.996 213.843V215.371C298.997 217.295 297.437 218.853 295.515 218.853Z" fill="#141B56"/>
<path d="M106.351 172.613L107.121 174.666H116.091L115.321 172.613H106.351Z" fill="#8495A0"/>
<path d="M195.684 182.576L195.04 183.82L204.117 193.201V190.447L195.684 182.576Z" fill="#E8987C"/>
<path d="M380.962 334.581H18.4874V342.857H380.962V334.581Z" fill="#A5B7C6"/>
<path d="M323.494 273.193C322.054 280.18 322.488 292.081 313.244 293.966C310.755 294.473 308.351 292.748 306.904 290.771C305.011 288.183 304.558 282.707 304.591 279.575C304.617 277.092 305.464 274.324 305.737 271.819C306.031 269.114 306.27 266.404 306.586 263.701C307.723 253.959 312.812 245.794 321.42 240.931C322.086 244.128 323.605 246.835 324.944 249.905C325.554 251.305 326.106 252.781 326.502 254.248C327.207 256.846 326.355 259.472 325.723 261.959C324.79 265.638 324.261 269.472 323.494 273.193Z" fill="url(#paint6_linear_107_4830)"/>
<path d="M311.681 294.201C311.746 293.615 311.819 293.028 311.896 292.442C313 292.44 314.15 291.812 315.077 291.331C316.685 290.498 317.989 289.303 319.252 288.026C319.32 287.958 319.206 287.848 319.134 287.908C317.874 288.966 316.569 289.991 315.069 290.69C314.233 291.08 313.011 291.717 311.981 291.84C312.078 291.141 312.185 290.443 312.301 289.746C313.451 289.605 314.504 288.85 315.478 288.272C317.133 287.29 318.557 286.02 320.032 284.796C320.049 284.782 320.029 284.757 320.011 284.769C317.754 286.408 315.239 288.742 312.385 289.253C312.536 288.38 312.696 287.51 312.879 286.644C312.889 286.599 312.899 286.554 312.909 286.509C316.213 285.673 318.448 283.082 320.978 280.987C321.019 280.953 320.975 280.883 320.932 280.917C318.44 282.851 316.099 285.06 313.02 285.998C313.286 284.761 313.564 283.527 313.844 282.295C316.834 281.193 319.221 279.441 321.31 277.002C321.345 276.96 321.288 276.903 321.25 276.943C319.087 279.194 316.705 280.487 313.963 281.768C314.239 280.548 314.513 279.328 314.773 278.105C316.066 277.469 317.426 277.082 318.621 276.245C319.8 275.42 320.857 274.437 321.616 273.209C321.656 273.144 321.559 273.083 321.517 273.145C319.844 275.55 317.322 276.298 314.885 277.563C315.123 276.423 315.344 275.279 315.542 274.13C318.258 272.634 321.21 271.248 322.749 268.382C322.764 268.353 322.724 268.326 322.707 268.353C321.076 270.987 318.226 272.121 315.639 273.554C315.672 273.349 315.71 273.145 315.742 272.94C315.908 271.873 316.064 270.806 316.217 269.738C317.778 269.113 319.265 268.231 320.67 267.316C321.667 266.667 322.732 266.024 323.384 265.004C323.425 264.94 323.331 264.874 323.287 264.936C321.831 267.023 318.641 268.229 316.284 269.274C316.438 268.196 316.589 267.116 316.742 266.038C319.357 264.456 322.433 263.581 324.042 260.729C324.09 260.644 323.966 260.566 323.913 260.649C322.246 263.253 319.313 264.057 316.814 265.534C316.91 264.866 317.008 264.198 317.108 263.531C319.931 262.493 323.214 260.13 324.703 257.577C324.785 257.437 324.582 257.306 324.49 257.441C322.971 259.681 319.92 262.115 317.19 263.001C317.357 261.919 317.532 260.839 317.724 259.761C317.744 259.731 317.758 259.699 317.766 259.665C319.033 259.291 320.287 258.398 321.381 257.723C322.7 256.909 323.96 255.963 324.78 254.625C324.871 254.478 324.631 254.341 324.545 254.493C323.291 256.731 320.315 258.231 317.851 259.086C317.924 258.693 317.994 258.299 318.072 257.907C318.189 257.319 318.308 256.733 318.428 256.146C319.437 255.449 320.718 255.115 321.731 254.38C322.611 253.741 323.38 252.97 324.134 252.19C324.21 252.113 324.098 251.993 324.018 252.067C322.996 253.028 321.945 253.95 320.701 254.616C320.005 254.989 319.212 255.201 318.538 255.609C318.735 254.65 318.932 253.69 319.119 252.73C319.131 252.728 319.143 252.724 319.155 252.723C319.167 252.725 319.179 252.728 319.191 252.73C319.261 252.744 319.316 252.719 319.357 252.679C320.729 252.333 321.779 251.152 322.7 250.146C322.722 250.121 322.688 250.087 322.665 250.109C321.697 251.004 320.599 251.993 319.303 252.378C319.298 252.377 319.294 252.374 319.289 252.373C319.256 252.368 319.224 252.363 319.191 252.357C319.341 251.576 319.484 250.792 319.615 250.007C319.714 249.989 319.8 249.905 319.777 249.806C320.504 249.317 321.165 248.695 321.785 248.086C321.831 248.041 321.766 247.969 321.716 248.011C321.072 248.567 320.436 249.025 319.71 249.427C319.966 247.806 320.165 246.176 320.255 244.529C320.264 244.377 320.033 244.375 320.019 244.525C319.876 246.11 319.646 247.679 319.373 249.241C318.616 248.248 317.775 247.226 317.312 246.09C317.288 246.031 317.195 246.054 317.215 246.118C317.441 246.824 317.831 247.441 318.218 248.068C318.563 248.63 318.84 249.284 319.28 249.782C319.128 250.621 318.963 251.457 318.791 252.292C317.871 252.145 317.027 251.97 316.267 251.304C315.337 250.49 314.809 249.38 314.716 248.152C314.706 248 314.466 248.001 314.481 248.152C314.586 249.296 315.04 250.371 315.823 251.224C316.645 252.121 317.611 252.406 318.719 252.636C318.517 253.601 318.309 254.564 318.097 255.527C317.261 255.026 316.485 254.37 315.732 253.77C314.517 252.802 313.799 251.636 312.744 250.545C312.639 250.436 312.466 250.594 312.571 250.704C313.559 251.756 314.228 252.894 315.353 253.838C316.162 254.518 317.055 255.37 318.021 255.872C318.01 255.924 317.999 255.974 317.988 256.025C317.978 256.035 317.966 256.043 317.956 256.053C317.882 256.125 317.89 256.208 317.935 256.269C317.732 257.191 317.53 258.113 317.335 259.037C317.323 259.095 317.312 259.153 317.3 259.211C315.15 258.226 311.938 256.517 311.653 254.023C311.626 253.785 311.272 253.852 311.327 254.094C311.963 256.916 315.065 258.168 317.202 259.707C316.992 260.752 316.799 261.8 316.621 262.85C315.233 262.372 313.912 261.781 312.746 260.854C311.685 260.011 310.185 258.993 309.708 257.688C309.693 257.647 309.632 257.673 309.646 257.714C310.088 259.012 311.433 259.905 312.413 260.79C313.656 261.915 314.927 262.869 316.524 263.319C316.512 263.365 316.509 263.413 316.52 263.459C316.411 264.125 316.305 264.792 316.203 265.459C313.592 265.258 309.939 263.275 308.604 261.301C308.598 261.291 308.586 261.301 308.591 261.311C309.501 262.817 310.877 263.698 312.428 264.463C313.587 265.033 314.838 265.709 316.149 265.806C315.962 267.042 315.781 268.279 315.596 269.515C314.463 269.093 313.263 268.89 312.143 268.441C310.476 267.774 309.204 266.577 308.222 265.104C308.164 265.015 308.015 265.09 308.073 265.183C309.881 268.056 312.481 268.9 315.527 269.976C315.375 270.989 315.217 272.003 315.049 273.014C312.555 272.537 309.331 271.015 308.07 268.849C307.977 268.69 307.724 268.822 307.816 268.983C308.614 270.37 309.987 271.248 311.386 271.955C312.395 272.465 313.784 273.309 314.986 273.4C314.98 273.433 314.975 273.466 314.97 273.499C314.723 274.956 314.435 276.404 314.125 277.848C311.339 277.148 309.539 275.085 307.515 273.155C307.374 273.02 307.154 273.225 307.294 273.363C309.356 275.392 311.168 277.522 314.033 278.272C313.776 279.447 313.503 280.619 313.219 281.788C310.848 281.124 308.499 279.441 306.965 277.508C306.856 277.371 306.666 277.556 306.769 277.692C308.363 279.79 310.662 281.373 313.11 282.241C312.802 283.495 312.484 284.747 312.162 285.997C309.725 285.626 307.847 284.101 306.347 282.173C306.312 282.128 306.234 282.187 306.267 282.233C307.601 284.089 309.617 286.231 312.044 286.455C311.941 286.855 311.838 287.254 311.735 287.653C311.673 287.894 311.608 288.138 311.542 288.384C309.704 287.843 307.998 287.183 306.482 285.945C306.439 285.911 306.391 285.976 306.431 286.012C307.872 287.31 309.597 288.184 311.441 288.752C311.236 289.503 311.02 290.275 310.807 291.062C310.352 290.85 309.91 290.617 309.412 290.468C308.498 290.193 307.906 289.614 307.111 289.136C307.038 289.092 306.955 289.196 307.028 289.243C307.727 289.699 308.217 290.286 309.015 290.586C309.605 290.809 310.161 291.092 310.731 291.345C309.893 294.467 309.152 297.785 309.554 300.782C309.643 301.447 310.759 301.623 310.931 300.915C311.46 298.742 311.433 296.421 311.681 294.201Z" fill="#747DED"/>
<path d="M294.243 271.192C295.886 278.134 301.302 288.74 293.718 294.35C291.675 295.861 288.768 295.311 286.622 294.129C283.813 292.583 281.091 287.809 279.799 284.956C278.776 282.694 278.374 279.826 277.565 277.442C276.689 274.866 275.763 272.307 274.908 269.724C271.827 260.413 272.994 250.863 278.746 242.821C280.7 245.438 283.219 247.251 285.729 249.47C286.872 250.481 287.995 251.587 288.975 252.75C290.709 254.807 291.045 257.547 291.523 260.068C292.229 263.797 293.368 267.496 294.243 271.192Z" fill="url(#paint7_linear_107_4830)"/>
<path d="M292.4 295.224C292.212 294.665 292.03 294.102 291.853 293.539C292.853 293.07 293.63 292.016 294.268 291.189C295.374 289.755 296.051 288.122 296.657 286.43C296.689 286.34 296.54 286.288 296.5 286.374C295.805 287.864 295.053 289.345 293.989 290.612C293.396 291.318 292.557 292.41 291.675 292.958C291.467 292.283 291.27 291.605 291.081 290.924C292.064 290.312 292.701 289.182 293.34 288.247C294.426 286.658 295.18 284.905 296.001 283.173C296.01 283.154 295.982 283.139 295.971 283.158C294.616 285.597 293.321 288.773 290.949 290.441C290.717 289.586 290.496 288.729 290.296 287.868C290.286 287.822 290.276 287.778 290.266 287.733C292.908 285.58 293.841 282.288 295.251 279.321C295.273 279.273 295.204 279.228 295.179 279.277C293.737 282.082 292.547 285.072 290.151 287.223C289.871 285.99 289.603 284.753 289.336 283.519C291.581 281.257 293.006 278.662 293.871 275.568C293.885 275.516 293.809 275.488 293.791 275.54C292.781 278.494 291.167 280.671 289.222 282.989C288.957 281.767 288.691 280.545 288.41 279.327C289.314 278.204 290.384 277.279 291.114 276.017C291.834 274.772 292.378 273.434 292.547 272.001C292.557 271.926 292.443 271.912 292.431 271.986C291.929 274.872 289.959 276.615 288.283 278.791C288.017 277.657 287.735 276.526 287.43 275.401C289.261 272.898 291.352 270.397 291.537 267.149C291.539 267.117 291.491 267.109 291.487 267.141C291.12 270.217 289.015 272.448 287.275 274.84C287.218 274.64 287.166 274.439 287.109 274.24C286.81 273.202 286.501 272.169 286.189 271.137C287.34 269.911 288.316 268.484 289.203 267.062C289.833 266.053 290.527 265.019 290.688 263.821C290.698 263.745 290.584 263.725 290.572 263.8C290.132 266.307 287.749 268.748 286.054 270.689C285.737 269.646 285.419 268.604 285.103 267.562C286.806 265.024 289.225 262.933 289.48 259.668C289.488 259.571 289.342 259.553 289.33 259.65C288.919 262.714 286.597 264.681 284.956 267.075C284.761 266.429 284.567 265.782 284.378 265.134C286.499 263.001 288.477 259.473 288.751 256.53C288.766 256.368 288.526 256.336 288.5 256.497C288.068 259.168 286.33 262.662 284.229 264.618C283.924 263.567 283.626 262.514 283.345 261.456C283.35 261.42 283.35 261.386 283.343 261.352C284.335 260.478 285.093 259.139 285.8 258.065C286.653 256.77 287.395 255.381 287.574 253.822C287.594 253.65 287.318 253.627 287.306 253.801C287.113 256.36 285.048 258.976 283.175 260.791C283.075 260.404 282.974 260.017 282.878 259.629C282.735 259.047 282.596 258.465 282.457 257.882C283.078 256.825 284.098 255.982 284.706 254.888C285.234 253.936 285.606 252.913 285.96 251.888C285.996 251.785 285.845 251.724 285.803 251.826C285.282 253.128 284.718 254.407 283.872 255.536C283.398 256.167 282.769 256.695 282.33 257.348C282.104 256.396 281.877 255.443 281.642 254.493C281.652 254.487 281.661 254.478 281.671 254.472C281.683 254.468 281.695 254.466 281.707 254.463C281.776 254.446 281.816 254.4 281.836 254.347C282.933 253.454 283.386 251.94 283.797 250.639C283.807 250.608 283.762 250.591 283.75 250.621C283.25 251.841 282.671 253.202 281.659 254.096C281.654 254.097 281.65 254.096 281.644 254.097C281.611 254.107 281.58 254.116 281.549 254.125C281.355 253.353 281.153 252.582 280.941 251.816C281.023 251.758 281.066 251.645 281.003 251.565C281.456 250.816 281.793 249.973 282.097 249.159C282.12 249.098 282.031 249.061 282.004 249.121C281.654 249.897 281.271 250.58 280.783 251.251C280.331 249.673 279.823 248.111 279.21 246.58C279.153 246.439 278.944 246.534 278.995 246.676C279.534 248.173 279.987 249.693 280.4 251.224C279.294 250.643 278.099 250.072 277.201 249.236C277.154 249.193 277.08 249.254 277.124 249.303C277.627 249.847 278.241 250.242 278.856 250.648C279.406 251.011 279.933 251.487 280.543 251.753C280.759 252.577 280.963 253.406 281.158 254.235C280.262 254.489 279.424 254.687 278.453 254.404C277.267 254.058 276.318 253.276 275.717 252.201C275.643 252.069 275.427 252.17 275.504 252.301C276.081 253.292 276.948 254.076 278.016 254.519C279.141 254.984 280.137 254.836 281.238 254.576C281.462 255.536 281.68 256.497 281.894 257.459C280.925 257.358 279.945 257.092 279.009 256.865C277.498 256.499 276.356 255.746 274.939 255.203C274.797 255.148 274.707 255.364 274.848 255.421C276.188 255.956 277.274 256.706 278.693 257.087C279.714 257.362 280.883 257.757 281.971 257.806C281.982 257.856 281.993 257.907 282.004 257.958C281.999 257.971 281.992 257.983 281.987 257.996C281.951 258.093 281.992 258.165 282.058 258.2C282.263 259.122 282.468 260.044 282.682 260.964C282.696 261.021 282.711 261.078 282.724 261.136C280.36 261.151 276.726 260.957 275.415 258.816C275.29 258.612 274.998 258.822 275.149 259.019C276.917 261.309 280.258 261.133 282.844 261.627C283.094 262.663 283.361 263.695 283.644 264.722C282.184 264.875 280.737 264.896 279.289 264.548C277.973 264.231 276.183 263.942 275.199 262.96C275.168 262.928 275.124 262.979 275.154 263.01C276.103 264 277.699 264.242 278.96 264.631C280.562 265.126 282.117 265.455 283.755 265.188C283.763 265.235 283.781 265.28 283.81 265.318C283.992 265.968 284.178 266.617 284.367 267.265C281.915 268.185 277.766 267.929 275.723 266.702C275.714 266.696 275.707 266.71 275.716 266.717C277.176 267.699 278.796 267.917 280.525 267.955C281.816 267.983 283.236 268.067 284.466 267.602C284.817 268.801 285.175 269.999 285.529 271.197C284.324 271.293 283.151 271.616 281.945 271.682C280.152 271.781 278.493 271.231 276.981 270.31C276.89 270.255 276.788 270.385 276.88 270.445C279.732 272.287 282.445 271.953 285.661 271.644C285.95 272.627 286.235 273.613 286.51 274.6C284.048 275.22 280.483 275.201 278.426 273.77C278.275 273.666 278.101 273.892 278.253 273.999C279.561 274.92 281.176 275.136 282.744 275.186C283.874 275.222 285.49 275.402 286.617 274.976C286.626 275.009 286.635 275.041 286.644 275.074C287.035 276.498 287.386 277.933 287.713 279.373C284.893 279.914 282.39 278.803 279.74 277.907C279.555 277.845 279.443 278.123 279.628 278.189C282.353 279.158 284.895 280.325 287.809 279.795C288.072 280.969 288.319 282.146 288.554 283.326C286.125 283.725 283.285 283.191 281.078 282.085C280.922 282.007 280.827 282.256 280.978 282.336C283.309 283.564 286.061 284.03 288.646 283.783C288.896 285.05 289.136 286.319 289.372 287.589C287.006 288.281 284.66 287.691 282.486 286.576C282.436 286.55 282.389 286.637 282.439 286.665C284.43 287.785 287.163 288.875 289.458 288.055C289.534 288.46 289.608 288.866 289.683 289.271C289.728 289.516 289.773 289.764 289.817 290.015C287.922 290.301 286.098 290.422 284.2 289.94C284.148 289.926 284.132 290.006 284.183 290.022C286.037 290.59 287.97 290.655 289.881 290.391C290.013 291.158 290.143 291.95 290.282 292.753C289.779 292.753 289.28 292.729 288.766 292.803C287.822 292.941 287.04 292.665 286.117 292.567C286.033 292.558 286.001 292.687 286.089 292.699C286.914 292.817 287.607 293.142 288.456 293.078C289.085 293.03 289.709 293.052 290.333 293.041C290.891 296.225 291.62 299.546 293.249 302.093C293.61 302.657 294.695 302.347 294.553 301.633C294.117 299.434 293.112 297.341 292.4 295.224Z" fill="#747DED"/>
<path d="M310.263 265.812C310.653 274.632 314.782 288.779 304.264 293.844C301.431 295.208 298.023 293.867 295.688 291.933C292.632 289.403 290.428 282.969 289.518 279.201C288.797 276.214 288.973 272.636 288.541 269.549C288.074 266.214 287.54 262.889 287.098 259.551C285.509 247.518 289.139 236.178 297.994 227.734C299.763 231.369 302.406 234.156 304.944 237.434C306.1 238.927 307.209 240.532 308.13 242.172C309.762 245.076 309.537 248.484 309.532 251.66C309.527 256.356 310.054 261.116 310.263 265.812Z" fill="url(#paint8_linear_107_4830)"/>
<path d="M302.458 294.6C302.359 293.877 302.268 293.152 302.183 292.426C303.508 292.087 304.697 290.985 305.664 290.129C307.34 288.642 308.542 286.812 309.67 284.896C309.731 284.794 309.56 284.696 309.492 284.791C308.302 286.443 307.046 288.068 305.458 289.362C304.573 290.082 303.3 291.216 302.101 291.677C302.005 290.808 301.923 289.938 301.85 289.068C303.187 288.55 304.223 287.325 305.216 286.336C306.903 284.656 308.227 282.7 309.625 280.785C309.641 280.763 309.609 280.739 309.592 280.759C307.381 283.41 305.071 286.971 301.801 288.45C301.717 287.358 301.645 286.264 301.603 285.171C301.6 285.113 301.599 285.056 301.597 284.999C305.308 282.994 307.204 279.208 309.605 275.927C309.643 275.874 309.569 275.803 309.527 275.857C307.125 278.933 304.986 282.293 301.575 284.353C301.52 282.788 301.479 281.224 301.441 279.66C304.693 277.431 307.027 274.605 308.795 271.045C308.824 270.985 308.739 270.933 308.704 270.992C306.792 274.349 304.326 276.621 301.424 278.99C301.385 277.443 301.345 275.896 301.285 274.35C302.644 273.195 304.159 272.318 305.339 270.952C306.503 269.605 307.473 268.105 308.011 266.402C308.039 266.312 307.905 266.269 307.872 266.356C306.594 269.748 303.796 271.411 301.255 273.667C301.195 272.228 301.113 270.788 301.003 269.349C303.808 266.73 306.928 264.172 307.906 260.267C307.916 260.229 307.86 260.208 307.847 260.246C306.689 263.9 303.613 266.125 300.944 268.629C300.922 268.373 300.905 268.117 300.882 267.861C300.758 266.532 300.622 265.204 300.481 263.876C302.164 262.652 303.681 261.143 305.089 259.62C306.087 258.539 307.17 257.444 307.644 256.023C307.674 255.934 307.541 255.883 307.507 255.971C306.392 258.917 302.93 261.332 300.419 263.299C300.276 261.959 300.131 260.619 299.988 259.278C302.646 256.586 306.071 254.604 307.136 250.695C307.168 250.578 306.996 250.523 306.958 250.638C305.748 254.268 302.471 256.121 299.921 258.652C299.834 257.821 299.748 256.99 299.667 256.158C302.739 254.057 305.962 250.225 306.975 246.712C307.03 246.519 306.746 246.423 306.677 246.613C305.534 249.76 302.611 253.606 299.605 255.497C299.478 254.149 299.359 252.8 299.263 251.448C299.277 251.407 299.285 251.365 299.285 251.32C300.692 250.489 301.925 249.036 303.034 247.894C304.37 246.517 305.594 245 306.173 243.146C306.237 242.942 305.907 242.851 305.852 243.058C305.025 246.124 301.909 248.826 299.212 250.599C299.18 250.105 299.145 249.612 299.12 249.117C299.082 248.377 299.047 247.637 299.014 246.897C300.013 245.755 301.448 244.967 302.44 243.777C303.303 242.742 303.992 241.584 304.661 240.42C304.727 240.304 304.558 240.194 304.485 240.307C303.55 241.77 302.568 243.194 301.277 244.371C300.555 245.029 299.667 245.524 298.983 246.218C298.929 245.007 298.873 243.797 298.808 242.587C298.822 242.582 298.835 242.573 298.848 242.567C298.863 242.566 298.878 242.566 298.894 242.565C298.982 242.56 299.04 242.514 299.077 242.453C300.618 241.622 301.52 239.887 302.32 238.4C302.339 238.364 302.289 238.333 302.266 238.367C301.377 239.733 300.358 241.254 298.92 242.108C298.914 242.108 298.91 242.106 298.902 242.106C298.861 242.11 298.821 242.113 298.779 242.117C298.722 241.133 298.655 240.15 298.575 239.169C298.688 239.118 298.766 238.99 298.708 238.878C299.432 238.071 300.037 237.125 300.596 236.206C300.638 236.137 300.538 236.071 300.491 236.137C299.886 237 299.261 237.742 298.513 238.444C298.328 236.422 298.073 234.406 297.682 232.403C297.646 232.217 297.368 232.285 297.397 232.469C297.705 234.414 297.905 236.367 298.052 238.323C296.843 237.362 295.522 236.391 294.623 235.167C294.576 235.104 294.472 235.16 294.515 235.231C295 236.009 295.655 236.631 296.309 237.268C296.894 237.837 297.424 238.536 298.103 239.001C298.175 240.054 298.231 241.107 298.277 242.161C297.128 242.263 296.063 242.31 294.95 241.741C293.587 241.044 292.616 239.874 292.134 238.427C292.074 238.249 291.789 238.322 291.851 238.5C292.323 239.84 293.195 240.992 294.392 241.778C295.651 242.604 296.896 242.655 298.295 242.594C298.346 243.813 298.388 245.031 298.426 246.251C297.271 245.903 296.142 245.353 295.056 244.861C293.304 244.067 292.089 242.886 290.493 241.898C290.333 241.799 290.174 242.04 290.333 242.142C291.837 243.103 292.985 244.266 294.621 245.058C295.799 245.628 297.129 246.38 298.44 246.69C298.441 246.755 298.444 246.819 298.445 246.883C298.436 246.898 298.424 246.911 298.415 246.926C298.348 247.035 298.383 247.133 298.455 247.191C298.491 248.36 298.527 249.528 298.574 250.695C298.577 250.768 298.582 250.841 298.585 250.914C295.707 250.385 291.333 249.308 290.236 246.402C290.131 246.125 289.727 246.312 289.866 246.586C291.485 249.78 295.586 250.34 298.617 251.539C298.68 252.857 298.766 254.173 298.873 255.487C297.062 255.335 295.298 255.026 293.618 254.267C292.09 253.577 289.983 252.811 289.013 251.388C288.983 251.344 288.918 251.394 288.947 251.439C289.871 252.863 291.757 253.526 293.199 254.291C295.031 255.264 296.846 256.023 298.899 256.079C298.899 256.137 298.91 256.195 298.937 256.248C299.008 257.081 299.083 257.912 299.163 258.744C295.97 259.295 290.986 258.024 288.785 256.059C288.775 256.049 288.762 256.065 288.772 256.075C290.32 257.606 292.239 258.246 294.331 258.693C295.894 259.027 297.601 259.457 299.203 259.177C299.353 260.716 299.51 262.255 299.664 263.794C298.177 263.631 296.676 263.752 295.194 263.553C292.992 263.257 291.103 262.206 289.478 260.736C289.38 260.648 289.225 260.783 289.323 260.876C292.364 263.776 295.739 263.999 299.72 264.366C299.845 265.629 299.962 266.893 300.068 268.157C296.932 268.34 292.601 267.491 290.432 265.276C290.272 265.113 290.009 265.349 290.168 265.513C291.545 266.937 293.459 267.573 295.353 267.997C296.717 268.303 298.64 268.895 300.109 268.639C300.112 268.68 300.116 268.722 300.12 268.763C300.266 270.585 300.36 272.41 300.424 274.236C296.87 274.241 294.085 272.311 291.071 270.607C290.861 270.489 290.66 270.801 290.869 270.924C293.958 272.733 296.777 274.74 300.443 274.771C300.491 276.259 300.518 277.747 300.532 279.236C297.485 279.158 294.157 277.852 291.73 275.996C291.558 275.864 291.385 276.145 291.55 276.277C294.1 278.311 297.338 279.514 300.538 279.812C300.549 281.411 300.546 283.009 300.538 284.607C297.502 284.9 294.787 283.639 292.402 281.781C292.347 281.737 292.27 281.832 292.325 281.877C294.487 283.699 297.557 285.658 300.536 285.191C300.533 285.702 300.531 286.212 300.528 286.721C300.527 287.029 300.523 287.342 300.518 287.657C298.149 287.565 295.903 287.291 293.708 286.265C293.647 286.236 293.608 286.33 293.667 286.361C295.789 287.481 298.125 288.007 300.509 288.129C300.492 289.092 300.466 290.084 300.449 291.093C299.838 290.976 299.237 290.831 298.594 290.803C297.414 290.751 296.529 290.236 295.429 289.904C295.329 289.874 295.261 290.022 295.364 290.057C296.34 290.392 297.107 290.948 298.153 291.066C298.929 291.154 299.682 291.325 300.443 291.455C300.384 295.455 300.502 299.661 301.892 303.135C302.201 303.905 303.592 303.779 303.584 302.878C303.57 300.115 302.834 297.338 302.458 294.6Z" fill="#747DED"/>
<path d="M316.068 297.904L315.679 305.074L315.07 316.238L314.071 334.581H289.237L288.238 316.238L287.629 305.074L287.24 297.904H316.068Z" fill="#95A8B5"/>
<path d="M315.679 305.074L315.599 306.511L315.519 307.999L315.07 316.238H288.238L287.789 307.999L287.709 306.511L287.63 305.074H315.679Z" fill="#A5B7C6"/>
<path d="M315.599 306.511L315.519 307.999H287.789L287.709 306.511H315.599Z" fill="#95A8B5"/>
<defs>
<radialGradient id="paint0_radial_107_4830" cx="0" cy="0" r="1" gradientUnits="userSpaceOnUse" gradientTransform="translate(226.426 151.643) scale(10.8474 10.8474)">
<stop stop-color="#FFC8AF"/>
<stop offset="1" stop-color="#FFBB9C"/>
</radialGradient>
<radialGradient id="paint1_radial_107_4830" cx="0" cy="0" r="1" gradientUnits="userSpaceOnUse" gradientTransform="translate(220.151 132.008) rotate(-12.1516) scale(17.1014 17.1014)">
<stop stop-color="#FFC8AF"/>
<stop offset="1" stop-color="#FFBB9C"/>
</radialGradient>
<radialGradient id="paint2_radial_107_4830" cx="0" cy="0" r="1" gradientUnits="userSpaceOnUse" gradientTransform="translate(203.299 315.434) scale(6.81946 6.81945)">
<stop stop-color="#FFC8AF"/>
<stop offset="1" stop-color="#FFBB9C"/>
</radialGradient>
<radialGradient id="paint3_radial_107_4830" cx="0" cy="0" r="1" gradientUnits="userSpaceOnUse" gradientTransform="translate(160.11 317.144) scale(6.21153 6.21152)">
<stop stop-color="#FFC8AF"/>
<stop offset="1" stop-color="#FFBB9C"/>
</radialGradient>
<radialGradient id="paint4_radial_107_4830" cx="0" cy="0" r="1" gradientUnits="userSpaceOnUse" gradientTransform="translate(197.927 200.585) scale(34.781 34.781)">
<stop stop-color="#FFC8AF"/>
<stop offset="1" stop-color="#FFBB9C"/>
</radialGradient>
<radialGradient id="paint5_radial_107_4830" cx="0" cy="0" r="1" gradientUnits="userSpaceOnUse" gradientTransform="translate(197.927 200.585) scale(34.7809 34.7808)">
<stop stop-color="#FFC8AF"/>
<stop offset="1" stop-color="#FFBB9C"/>
</radialGradient>
<linearGradient id="paint6_linear_107_4830" x1="315.678" y1="240.932" x2="315.68" y2="294.055" gradientUnits="userSpaceOnUse">
<stop stop-color="#606BF1"/>
<stop offset="1" stop-color="#58479F"/>
</linearGradient>
<linearGradient id="paint7_linear_107_4830" x1="273.541" y1="245.245" x2="295.964" y2="293.403" gradientUnits="userSpaceOnUse">
<stop stop-color="#606BF1"/>
<stop offset="1" stop-color="#58479F"/>
</linearGradient>
<linearGradient id="paint8_linear_107_4830" x1="291.104" y1="229.473" x2="307.212" y2="293.212" gradientUnits="userSpaceOnUse">
<stop stop-color="#606BF1"/>
<stop offset="1" stop-color="#58479F"/>
</linearGradient>
</defs>
</svg>
