<svg width="10" height="10" viewBox="0 0 10 10" fill="none" xmlns="http://www.w3.org/2000/svg">
<path d="M0.333374 0.5V9.5H4.33337V7.75H5.66671V9.5H9.66671V0.5H0.333374ZM1.66671 1.5H3.00004V2.5H1.66671V1.5ZM4.33337 1.5H5.66671V2.5H4.33337V1.5ZM7.00004 1.5H8.33338V2.5H7.00004V1.5ZM1.66671 3.5H3.00004V4.5H1.66671V3.5ZM4.33337 3.5H5.66671V4.5H4.33337V3.5ZM7.00004 3.5H8.33338V4.5H7.00004V3.5ZM1.66671 5.5H3.00004V6.5H1.66671V5.5ZM4.33337 5.5H5.66671V6.5H4.33337V5.5ZM7.00004 5.5H8.33338V6.5H7.00004V5.5ZM1.66671 7.5H3.00004V8.5H1.66671V7.5ZM7.00004 7.5H8.33338V8.5H7.00004V7.5Z" fill="#A7A7A7"/>
</svg>
